# xmcd CD database file
#
# Track frame offsets:
#	150
#	27204
#	54247
#	95694
#	114063
#	132869
#	152951
#	171292
#	198149
#	219421
#	239695
#	258513
#	287999
#
# Disc length: 4101 seconds
#
# Revision: 0
# Processed by: cddbd v1.5.2PL0 Copyright (c) Steve Scherf et al.
# Submitted via: CDex 1.70beta2
#
DISCID=b610030d
DTITLE=Buck Pizzarelli - 5 For Freddie - Buck's Tribute to Freddie Green
DYEAR=2006
DGENRE=Jazz
TTITLE0=Groovin' High
TTITLE1=Bustin' Suds
TTITLE2=For Lena and Lennie
TTITLE3=Up in the Blues
TTITLE4=Down for Double
TTITLE5=High Tide
TTITLE6=Dreamsville
TTITLE7=Shiny Stockings
TTITLE8=Centerpiece
TTITLE9=Corner Pocket
TTITLE10=All of Me
TTITLE11=Sophisticated Swing
TTITLE12=Lester Leaps In
EXTD=YEAR: 2006
EXTT0=
EXTT1=
EXTT2=
EXTT3=
EXTT4=
EXTT5=
EXTT6=
EXTT7=
EXTT8=
EXTT9=
EXTT10=
EXTT11=
EXTT12=
PLAYORDER=
